<svg width="178" height="40" viewBox="0 0 178 40" fill="none" xmlns="http://www.w3.org/2000/svg">
<g clip-path="url(#clip0_2242_14)">
<path d="M47.2012 24.4043V14.9023C47.2012 14.7266 47.2565 14.5833 47.3672 14.4727C47.4844 14.3555 47.6276 14.2969 47.7969 14.2969H49.9844C50.1602 14.2969 50.3034 14.3555 50.4141 14.4727C50.5247 14.5833 50.5801 14.7266 50.5801 14.9023V15.5176C51.0488 15.0618 51.5078 14.7135 51.957 14.4727C52.4128 14.2253 52.9596 14.1016 53.5977 14.1016C55.1146 14.1016 56.2637 14.7266 57.0449 15.9766C58.2559 14.7201 59.4961 14.0951 60.7656 14.1016C62.0417 14.1016 63.0475 14.4857 63.7832 15.2539C64.5254 16.0156 64.8965 17.1973 64.8965 18.7988V24.4043C64.8965 24.5801 64.8411 24.7233 64.7305 24.834C64.6198 24.9447 64.4766 25 64.3008 25H62.123C61.9473 25 61.8008 24.9447 61.6836 24.834C61.5729 24.7168 61.5176 24.5736 61.5176 24.4043V18.7988C61.5176 17.2363 60.9512 16.4583 59.8184 16.4648C59.1283 16.4648 58.4154 16.9629 57.6797 17.959C57.7188 18.2389 57.7383 18.5189 57.7383 18.7988V24.4043C57.7383 24.5801 57.6797 24.7233 57.5625 24.834C57.4518 24.9447 57.3118 25 57.1426 25H54.9648C54.7891 25 54.6426 24.9447 54.5254 24.834C54.4147 24.7168 54.3594 24.5736 54.3594 24.4043V18.7988C54.3594 17.2363 53.793 16.4583 52.6602 16.4648C51.9375 16.4648 51.2441 16.9303 50.5801 17.8613V24.4043C50.5801 24.5801 50.5215 24.7233 50.4043 24.834C50.2936 24.9447 50.1536 25 49.9844 25H47.7969C47.6211 25 47.4779 24.9447 47.3672 24.834C47.2565 24.7233 47.2012 24.5801 47.2012 24.4043ZM69.2168 23.7891C68.2012 22.8516 67.6934 21.4714 67.6934 19.6484C67.6934 17.819 68.2012 16.4388 69.2168 15.5078C70.2324 14.5703 71.6908 14.1016 73.5918 14.1016C75.4993 14.1016 76.9609 14.5703 77.9766 15.5078C78.9922 16.4388 79.5 17.819 79.5 19.6484C79.5 21.4714 78.9922 22.8516 77.9766 23.7891C76.9609 24.7266 75.4993 25.1953 73.5918 25.1953C71.6908 25.1953 70.2324 24.7266 69.2168 23.7891ZM71.6875 17.1094C71.2839 17.6367 71.082 18.4798 71.082 19.6387C71.082 20.7975 71.2839 21.6439 71.6875 22.1777C72.0911 22.7116 72.7259 22.9785 73.5918 22.9785C74.4642 22.9785 75.1022 22.7116 75.5059 22.1777C75.916 21.6439 76.1211 20.7975 76.1211 19.6387C76.1211 18.4798 75.916 17.6367 75.5059 17.1094C75.1022 16.582 74.4642 16.3184 73.5918 16.3184C72.7259 16.3184 72.0911 16.582 71.6875 17.1094ZM82.3066 24.4043V14.9023C82.3066 14.7266 82.362 14.5833 82.4727 14.4727C82.5898 14.3555 82.7331 14.2969 82.9023 14.2969H85.0898C85.2591 14.2969 85.3991 14.3555 85.5098 14.4727C85.627 14.5833 85.6855 14.7266 85.6855 14.9023V15.5176C86.8053 14.5736 87.9967 14.1016 89.2598 14.1016C90.5293 14.1016 91.5612 14.4889 92.3555 15.2637C93.1497 16.0319 93.5469 17.2103 93.5469 18.7988V24.4043C93.5469 24.5736 93.4883 24.7168 93.3711 24.834C93.2604 24.9447 93.1172 25 92.9414 25H90.7637C90.5944 25 90.4512 24.9447 90.334 24.834C90.2233 24.7168 90.168 24.5736 90.168 24.4043V18.7988C90.168 17.2428 89.5462 16.4648 88.3027 16.4648C87.4889 16.4648 86.6165 16.9303 85.6855 17.8613V24.4043C85.6855 24.5736 85.627 24.7168 85.5098 24.834C85.3991 24.9447 85.2591 25 85.0898 25H82.9023C82.7331 25 82.5898 24.9447 82.4727 24.834C82.362 24.7168 82.3066 24.5736 82.3066 24.4043ZM97.8574 23.7695C96.8548 22.819 96.3535 21.4518 96.3535 19.668C96.3535 17.8776 96.8581 16.5039 97.8672 15.5469C98.8763 14.5833 100.276 14.1016 102.066 14.1016C103.857 14.1016 105.253 14.5703 106.256 15.5078C107.258 16.4388 107.76 17.7767 107.76 19.5215V20.0781C107.76 20.2539 107.701 20.4004 107.584 20.5176C107.473 20.6283 107.33 20.6836 107.154 20.6836H99.8008C99.8659 21.4844 100.094 22.0671 100.484 22.4316C100.882 22.7962 101.513 22.9785 102.379 22.9785C103.245 22.9785 103.837 22.7832 104.156 22.3926C104.475 22.002 104.869 21.8034 105.338 21.7969H106.793C106.969 21.7969 107.112 21.8555 107.223 21.9727C107.34 22.0833 107.398 22.2266 107.398 22.4023C107.398 24.2708 105.618 25.2018 102.057 25.1953C100.26 25.1953 98.86 24.7201 97.8574 23.7695ZM99.7812 18.623H104.322C104.257 17.0866 103.502 16.3184 102.057 16.3184C100.618 16.3184 99.8594 17.0866 99.7812 18.623ZM112.441 26.0156L113.721 26.1816C114.639 26.1816 115.28 25.5078 115.645 24.1602C114.538 24.1602 113.613 23.8281 112.871 23.1641C112.129 22.4935 111.491 21.3053 110.957 19.5996L109.502 14.8828C109.482 14.8307 109.473 14.7721 109.473 14.707C109.473 14.6354 109.512 14.5508 109.59 14.4531C109.674 14.3555 109.798 14.3034 109.961 14.2969H112.002C112.191 14.2969 112.37 14.362 112.539 14.4922C112.715 14.6159 112.829 14.7721 112.881 14.9609L114.16 19.1016C114.479 20.1172 114.801 20.8203 115.127 21.2109C115.459 21.6016 115.85 21.7969 116.299 21.7969L118.242 14.9609C118.294 14.7721 118.395 14.6159 118.545 14.4922C118.701 14.362 118.874 14.2969 119.062 14.2969H121.123C121.286 14.2969 121.406 14.349 121.484 14.4531C121.562 14.5573 121.602 14.6452 121.602 14.7168C121.602 14.7819 121.595 14.8372 121.582 14.8828L119.023 24.0039C118.568 25.6185 118.001 26.7708 117.324 27.4609C116.654 28.151 115.788 28.4961 114.727 28.4961C113.665 28.4961 112.913 28.457 112.471 28.3789C112.035 28.3008 111.761 28.2031 111.65 28.0859C111.54 27.9753 111.484 27.8451 111.484 27.6953V26.6211C111.484 26.4453 111.54 26.2988 111.65 26.1816C111.761 26.071 111.904 26.0156 112.08 26.0156H112.441Z" fill="white" fill-opacity="0.85"/>
<path d="M125.824 21.8359C126.703 21.8359 127.143 22.2786 127.143 23.1641V23.7793C127.143 24.1895 127.029 24.5117 126.801 24.7461C126.579 24.9805 126.254 25.0977 125.824 25.0977H124.623C124.193 25.0977 123.865 24.9805 123.637 24.7461C123.415 24.5117 123.305 24.1895 123.305 23.7793V23.1641C123.305 22.7344 123.419 22.4056 123.646 22.1777C123.874 21.9499 124.2 21.8359 124.623 21.8359H125.824ZM130.154 11.6016C130.154 11.4258 130.21 11.2826 130.32 11.1719C130.438 11.0547 130.581 10.9961 130.75 10.9961H132.938C133.107 10.9961 133.247 11.0547 133.357 11.1719C133.475 11.2826 133.533 11.4258 133.533 11.6016V14.5996C134.588 14.2676 135.529 14.1016 136.355 14.1016C137.957 14.1016 139.23 14.5801 140.174 15.5371C141.118 16.4876 141.59 17.8613 141.59 19.6582C141.59 23.3496 139.523 25.1953 135.389 25.1953C134.445 25.1953 133.465 25.0911 132.449 24.8828C131.44 24.668 130.675 24.4076 130.154 24.1016V11.6016ZM133.533 16.8555V22.6172C134.093 22.7669 134.806 22.8418 135.672 22.8418C136.538 22.8418 137.16 22.5911 137.537 22.0898C137.921 21.5885 138.113 20.778 138.113 19.6582C138.113 18.5384 137.924 17.7279 137.547 17.2266C137.176 16.7188 136.544 16.4648 135.652 16.4648C135.079 16.4648 134.373 16.5951 133.533 16.8555ZM145.314 23.7891C144.299 22.8516 143.791 21.4714 143.791 19.6484C143.791 17.819 144.299 16.4388 145.314 15.5078C146.33 14.5703 147.788 14.1016 149.689 14.1016C151.597 14.1016 153.059 14.5703 154.074 15.5078C155.09 16.4388 155.598 17.819 155.598 19.6484C155.598 21.4714 155.09 22.8516 154.074 23.7891C153.059 24.7266 151.597 25.1953 149.689 25.1953C147.788 25.1953 146.33 24.7266 145.314 23.7891ZM147.785 17.1094C147.382 17.6367 147.18 18.4798 147.18 19.6387C147.18 20.7975 147.382 21.6439 147.785 22.1777C148.189 22.7116 148.824 22.9785 149.689 22.9785C150.562 22.9785 151.2 22.7116 151.604 22.1777C152.014 21.6439 152.219 20.7975 152.219 19.6387C152.219 18.4798 152.014 17.6367 151.604 17.1094C151.2 16.582 150.562 16.3184 149.689 16.3184C148.824 16.3184 148.189 16.582 147.785 17.1094ZM157.35 24.6973C157.324 24.6322 157.311 24.554 157.311 24.4629C157.311 24.3652 157.363 24.2578 157.467 24.1406L160.865 19.6387L157.691 15.1562C157.483 14.8828 157.47 14.6419 157.652 14.4336C157.73 14.3424 157.841 14.2969 157.984 14.2969H160.104C160.735 14.2969 161.243 14.5833 161.627 15.1562L163.248 17.6172L164.869 15.1562C165.253 14.5833 165.761 14.2969 166.393 14.2969H168.512C168.655 14.2969 168.766 14.3424 168.844 14.4336C169.026 14.6419 169.013 14.8828 168.805 15.1562L165.631 19.6387L169.029 24.1406C169.133 24.2578 169.186 24.3685 169.186 24.4727C169.186 24.5703 169.173 24.6452 169.146 24.6973C169.094 24.8991 168.954 25 168.727 25H166.646C166.048 25 165.54 24.7135 165.123 24.1406L163.248 21.6016L161.363 24.1406C160.953 24.7135 160.449 25 159.85 25H157.77C157.542 25 157.402 24.8991 157.35 24.6973Z" fill="#009C35" fill-opacity="0.85"/>
<path opacity="0.5" d="M39.9895 0.270225L30.2028 36.8334C30.153 36.9993 29.954 37.0491 29.8378 36.9329L23.2857 30.3771L28.1957 12.0541C28.2454 11.8881 28.0961 11.7387 27.9303 11.7885L9.61741 16.7012L3.09844 10.1786C2.98232 10.0624 3.03209 9.86327 3.19796 9.81348L39.7241 0.0046739C39.89 -0.02852 40.0393 0.120853 39.9895 0.270225Z" fill="#009C35"/>
<path opacity="0.5" d="M23.2861 30.3771L20.7648 39.8374C20.715 40.0034 20.516 40.0532 20.3998 39.937L0.0632817 19.6057C-0.0528324 19.4895 -0.00306939 19.2904 0.162808 19.2406L9.61781 16.7012L23.2861 30.3771Z" fill="#009C35"/>
<path d="M28.1954 12.0536L23.2855 30.3766L9.61719 16.7007L27.93 11.788C28.0959 11.7382 28.2452 11.8876 28.1954 12.0536Z" fill="#009C35"/>
</g>
<defs>
<clipPath id="clip0_2242_14">
<rect width="178" height="40" fill="white"/>
</clipPath>
</defs>
</svg>
